/* XPM */
static char *a0919359dfea48078d15d217c0f0e10cydkrPGwGwACHSCtY[] = {
/* columns rows colors chars-per-pixel */
"32 32 9 1 ",
"  c None",
". c #2F2F2E",
"X c #494949",
"o c #2F2F2E",
"O c #B97F56",
"+ c #7C4E2E",
"@ c #99643E",
"# c #494949",
"$ c white",
/* pixels */
"                                ",
"                                ",
"                                ",
"                                ",
"                                ",
"                                ",
"                                ",
"                                ",
"                                ",
"                                ",
"                                ",
"                                ",
"                                ",
"                                ",
"                                ",
"        ooo.        ooo.        ",
"       oOOOo.      oOOOo        ",
"       o+@@o.      o+@@o        ",
"       o+@@ooooooooo+@@o        ",
"       o+@@OOOOOOOOOO@@o        ",
"       o+@@@@@@@@@@@@@@o        ",
"       o+@@ooooooooo+@@o        ",
"       o+@@ooooooooo+@@o        ",
"     ##o+@@OOOOOOOOOO@@o##X     ",
"    ###o+@@@@@@@@@@@@@@o###X    ",
"   ####o+@@ooooooooo+@@o####    ",
"   ##ooo+++ooooooooo+++ooo##    ",
"   XoooooooooooooooooooooooX    ",
"   XXoooooooooooooooooooooXX    ",
"    ...ooooooooooooooooo....    ",
"     .....ooooooooooo......     ",
"                                "
};
