/* XPM */
static char *_613f0fd3e6c4ccdab316f92d7c00b6c5AZJoWL5PtcFXGTZ[] = {
/* columns rows colors chars-per-pixel */
"128 128 13 1 ",
"  c None",
". c gray9",
"X c #432E27",
"o c #6A4834",
"O c #882E2E",
"+ c #C43C3C",
"@ c #65659B",
"# c #688488",
"$ c #BFA787",
"% c #E8D4B2",
"& c #ACC1C6",
"* c #F8F8F8",
"= c white",
/* pixels */
"                                                                                                                                ",
"                                                                                                                                ",
"                                                                                                                                ",
"                                                                                                                                ",
"                                                                                                                                ",
"                                                                                                                                ",
"                XX                                                                                                              ",
"             XXXooXX.                            XX                              XX                              XX             ",
"           XXoooX.ooo.                       XXXXooXX.                       XXXXooXX.                       XXXXooXX.          ",
"          XoooooooooX.                     XXooooX.ooo.                    XXooooX.ooo.                    XXooooX.ooo.         ",
"          XooXXXXXooo..                   XoooooooooX.                    XoooooooooX.                    XoooooooooX.          ",
"         XoXX$$$$XXXXX.                   XooXXXXXoooX.                   XooXXXXXoooX.                   XooXXXXXoooX.         ",
"         XX$$%%%%$$XXX.                  XoXX$$$$$XXXXX.                 XoXX$$$$$XXXXX.                 XoXX$$$$$XXXXX.        ",
"         .X$%%%%%%$$$..                  XX$$%%%%%$$XXX.                 XX$$%%%%%$$XXX.                 XX$$%%%%%$$XXX.        ",
"         .$%.%%%%.%$$$.                  .X$%%%%%%%%$..                  .X$%%%%%%%%$..                  .X$%%%%%%%%$..         ",
"          .%.%%%%.%$$.                   .$%%.%%%%.%%$.                  .$%%.%%%%.%%$.                  .$%%.%%%%.%%$.         ",
"          .$%%%%%%$$$.                    .%%.%%%%.%%.                    .%%.%%%%.%%.                    .%%.%%%%.%%.          ",
"           .$%X%%$$$.                    ..$%%%%%%%%$.                   ..$%%%%%%%%$.                   ..$%%%%%%%%$.          ",
"        &&&&&&X$...++.                  .%$.$%%%%%%$.                   .%$.$%%%%%%$.                   .%$.$%%%%%%$.           ",
"       &******X.%%$OO.                  .%%O++$$$$.OO.                  .%%O++$$$$.OO.                  .%%O++$$$$.OO.          ",
"        ######X.$$$..                   *....OO++.%%O.                   ....OO++O.OO.                   ....OO++O.OO.          ",
"           ...X=....                        .XX*X.%$.                      ...X**X.%%.                     ...X**X.%%.          ",
"           .OOOOOOO.                     * .XOO.&X...                      .XX..OO.%$.                     .XX..OO.%$.          ",
"           .XX...@@.                     **.XX.&*&X.                        ..  .@O..OO                     ..  .@@..OO         ",
"            ..  .oo.                      * ..&*&oo.                            .oo&*&                          .oo#*&          ",
"                 ..                       *****& ..                              ..&*&                           ..#*&          ",
"                                           ***&                                    &*&                             #*&          ",
"                                           &*&                                     &*&                             #*&          ",
"                                           &&                                   *  &*&                             #*&          ",
"                                                                                  ***&                             #*&          ",
"                                                                                    &                               &           ",
"                                                                                                                                ",
"                                                                                                                                ",
"                                                                                                                                ",
"                                                                                                                                ",
"                                                                                                                                ",
"                                                                                                                                ",
"                                                                                                                                ",
"             XX                                                               &*                              &                 ",
"          XXXoo..XX                          XX                              XX  *                           XX&                ",
"         XooX..ooooXX                     XXXoo..XX                       XXXoo..XX                       XXXoo..XX             ",
"          .XoooooooooX                   XooX..ooooXX  &&                XooX..ooooXX                    XooX..ooooXX           ",
"         XoooooooooooX                    .XoooooooooX&*&                 .XoooooooooX                    .XoooooooooX          ",
"        XooooooooooooX.                  XoooooooooooX**                 XoooooooooooX                   XoooooooooooX          ",
"        XXooooooooooXX.                 XooooooooooooX.**               XooooooooooooX.                 XooooooooooooX.         ",
"         .XoooooooooXX.                 XXooooooooooXX.**               XXooooooooooXX.                 XXooooooooooXX.         ",
"         .XXXoooooXXXX.                  .XoooooooooXX. *                .XoooooooooXX.                  .XoooooooooXX.         ",
"          .XXXXXXXXXX.                   .XXXoooooXXXX. *                .XXXoooooXXXX.                  .XXXoooooXXXX.         ",
"          .$XXXXXXXX$.                    .XXXXXXXXXX.  *                 .XXXXXXXXXX.                    .XXXXXXXXXX.          ",
"           .$%XXXX%$.                     .$XXXXXXXX$.                    .$XXXXXXXX$.                    .$XXXXXXXX$.          ",
"            .O$%%$...&&&                   .$%XXXX%$.   *                 ..$%XXXX%$..                    ..$%XXXX%$..          ",
"            .O+++.%%.***#                 .O++$%%$+O..                    .O.O$%%$O.%%.                   .O.O$%%$O.%%.         ",
"            .O+++.%%.###                  .OO+++++O.%%.                   .O.OOOXXX.%%.                   .O.OOOXXX.%%.         ",
"            .XXXXX...                      .OO++XXX.%%.                    ..XXXOOOO..                     ..XXXOOOO..          ",
"            .OOOOOOO.                       .XXX.OOO..                      .OO...XX.                       .OO...XX.           ",
"            .@@...XX.                       .@@. .XX.                       .@@.  ..                        .@@.  ..            ",
"            .oo.  ..                        .oo.  ..                        .OO.                            .OO.                ",
"             ..                              ..                              ..                              ..                 ",
"                                                                                                                                ",
"                                                                                                                                ",
"                                                                                                                                ",
"                                                                                                                                ",
"                                                                                                                                ",
"                                                                                                                                ",
"                                                                                                                                ",
"                                                                                                                                ",
"                                                                                                                                ",
"                                                                                                                                ",
"                                                                                                                                ",
"                                                                                                                                ",
"                                                                                  X                               X             ",
"             XXXXX X                         XXXXX X                         XXXXXoX                         XXXXXoX            ",
"           XXoooooXoX                      XXoooooXoX                      XXooooo..                       XXooooo..            ",
"          Xoooooooooo.                    XoooooooooX.                    Xooooooooo.                     Xooooooooo.           ",
"          XooooXXXXX.                     XoooooXXXX.                     XooooooXXX.                     XooooooXXX.           ",
"         .oooXX$$%%XX.                   XooooXX$%%$X.                   XoooooXX$%$X.&                  XoooooXX$%$X.&         ",
"         .XoX$$%%%%$X.                   XoooX$$%%%%$.                   XooooX$$%%%$.*&                 XooooX$$%%%$.*&        ",
"         .XXX$%%%%%%$.                   XXooX$%%%%%%.                   .XooXX$%%%%%.*                  .XooXX$%%%%%.&         ",
"         .XX$%%.%%%.%.                   .XXX$$%.%%%..                   .XXXX$%%.%%%.*                  .XXXX$%%.%%%.          ",
"          .$$%%.%%%..                     .XX$%%.%%%.                     .XXX$%%.%%.                     .XXX$%%.%%.           ",
"          .$$%%%%%%%.                     .XX$%%%%%%.                     .$XX$%%%%%. *                   .$XX$%%%%%.           ",
"           .$$$%%%%.                       .$$$%%%%. O                     .$$$%%%%.                       .$$$%%%%.            ",
"            ..$$%...                        ..$$%...OO&&&&&&                ..$$%...                        ..$$%...            ",
"           ..O++.%%.                       ..OO+++.%.O******&              ..O+++O.                        ..O+++O.             ",
"          .%%.O+.%%.O                     .%%.O+++.%.O&&*&**              .%%.O+++.                       .%%.O+++.             ",
"          .%%...*..O&                     .%%...**.. O    **              .%%...**..                      .%%...**..            ",
"           ..OOOOOO&*&                     ..OOOOO@.      *                ..OOOOO@.                       ..OOOOO@.            ",
"            .@@@.oo.&*&                     .@@@.oo.      *                 .@@@.oo.                        .@@@.oo.            ",
"            .ooo...  &*&                    .ooo...      *                  .ooo...                         .ooo...             ",
"             ...      &*&                    ...                             ...                             ...                ",
"                       &&                               *                                                                       ",
"                                                                                                                                ",
"                                                                                                                                ",
"                                                                                                                                ",
"                                                                                                                                ",
"                                                                                                                                ",
"                                                                                                                                ",
"                                                                                                                                ",
"                                                                                                                                ",
"                                                                                                                                ",
"                                                                                                                                ",
"                                                                                                                                ",
"                XX                            XX                              XX                               XX               ",
"             XXXooX                         XXooX                            XooXX                            XooXX             ",
"           XXooooX.X                      XXoooX.XX                        XXooX.oXX                        XXooX.oXX           ",
"          XoooooooXXX                    XooooooXXoX                      XoooooXXooX                      XoooooXXooX          ",
"          .XXXXooX..X                    XXXoooo..oX                      XXXooo..XoX                      XXXooo..XoX          ",
"         .XX%%X...XXo.                  .X$$X...XXoX.               &&   .X$$...XXooX.               &&   .X$$...XXooX.         ",
"         .X$%%%%$$XXX.                  .$%%%$$$XooX.               &*&  .$%%%$$XooXX.               &*&  .$%%%$$XooXX.         ",
"         .$%%%%%%$XXX.                  .%%%%%%%XXoX.                **& .%%%%%%XXoXX.                &*& .%%%%%%XXoXX.         ",
"         .%.%%%.%%$XX.                  ..%%%.%$$XXX.                *&*&.%%%.%%$XXXX.                 &*&.%%%.%%$XXXX.         ",
"          ..%%%.%%$$.                    .%%%.%$$XX.                   &*&.%%.%%$XXX.                   &*&.%%.%%$XXX.          ",
"          .%%%%%%%$$.                    .%%%%%$$XX.                 *  &O.%%%%%$XX$.                    &O.%%%%%$XX$.          ",
"           .%%%%$$$.                     O.%%%$$$$.                     O.%.%%%$$$$.                     O.%.%%%$$$$.           ",
"          ....%$$...              &&&&&&&OO.......                       .%%..$$$..$.                     .%%..$$$..            ",
"          ..+++..OO.             &*******O.%%.+OO.                        ...+++OO.$.                      ...+++OO..           ",
"           .++.%%...              **&*&&&O.%%.++O.                          .++++O..                         .++++O.$.          ",
"           .XO.%%..               **     O......X.                         .X**XXX.                         .X**XXX.$.          ",
"           .O&O..O.                *      .OOOOOO.                         .OOOOOO.                         .OOOOOO..           ",
"           .&*&O@@.                *      .oo.@@@.                         .oo.@@@.                         .oo.@@@.            ",
"           &*&.ooo.                 *      ...ooo.                          ...ooo.                          ...ooo.            ",
"          &*&  ...                            ...                              ...                              ...             ",
"         &*&                         *                                                                                          ",
"         &&                                                                                                                     ",
"                                                                                                                                ",
"                                                                                                                                ",
"                                                                                                                                ",
"                                                                                                                                "
};
