/* XPM */
static char *_4df238330c34a08f82a2fcf9927b3e0l8K2ax8ToDe9fQJx[] = {
/* columns rows colors chars-per-pixel */
"64 128 12 1 ",
"  c None",
". c gray9",
"X c #681C1C",
"o c #432E27",
"O c #6A4834",
"+ c #882E2E",
"@ c #C43C3C",
"# c #65659B",
"$ c #5586B9",
"% c #BFA787",
"& c #E8D4B2",
"* c #F8F8F8",
/* pixels */
"                                                                ",
"                                                                ",
"                                                                ",
"                                                                ",
"                                                                ",
"                                                                ",
"         oo                              oo                     ",
"     ooooOOoo.           oo          ooooOOoo.           oo     ",
"   ooOOOOo.OOO.      ooooOOoo.     ooOOOOo.OOO.      ooooOOoo.  ",
"  oOOOOOOOOOo.     ooOOOOo.OOO.   oOOOOOOOOOo.     ooOOOOo.OOO. ",
"  oOOoooooOOOo.   oOOOOOOOOOo.    oOOoooooOOOo.   oOOOOOOOOOo.  ",
" oOoo%%%%%ooooo.  oOOoooooOOOo.  oOoo%%%%%ooooo.  oOOoooooOOOo. ",
" oo%%&&&&&%%ooo. oOoo%%%%%ooooo. oo%%&&&&&%%ooo. oOoo%%%%%ooooo.",
" .o%&&&&&&&&%..  oo%%&&&&&%%ooo. .o%&&&&&&&&%..  oo%%&&&&&%%ooo.",
" .%&&.&&&&.&&%.  .o%&&&&&&&&%..  .%&&.&&&&.&&%.  .o%&&&&&&&&%.. ",
"  .&&.&&&&.&&.   .%&&.&&&&.&&%.   .&&.&&&&.&&.   .%&&.&&&&.&&%. ",
"  .%&&&&&&&&%.    .&&.&&&&.&&.    .%&&&&&&&&%.    .&&.&&&&.&&.  ",
"   .%&&&&&&%.     .%&&&&&&&&%.     .%&&&&&&%.     .%&&&&&&&&%.  ",
"  X@@@%&&%@@@.     .%&&&&&&%.     X@@@%&&%@@@.     .%&&&&&&%.   ",
"  X@+@@@@@@+@.    X@@@%&&%@@@.    X@+@@@@@@+@.    X@@@%&&%@@@.  ",
" .&%.+@@@@+.%&.   X@@+@@@@@.%.   .&%.+@@@@+.%&.   .%.@@@@@+@@.  ",
" .%%.oo**oo.%%.   .&%.@@@@+..    .%%.oo**oo.%%.    ..+@@@@.%&.  ",
"  ...++++++...    .%%.o**oo.      ...++++++...      .oo**o.%%.  ",
"    .$#..#$.       ..++++++.        .$#..#$.        .++++++..   ",
"    .OO..OO.        .oo..#$.        .OO..OO.        .$#..oo.    ",
"     ..  ..          .. .OO.         ..  ..         .OO. ..     ",
"                         ..                          ..         ",
"                                                                ",
"                                                                ",
"                                                                ",
"                                                                ",
"                                                                ",
"                                                                ",
"                                                                ",
"                                                                ",
"                                                                ",
"                                                                ",
"                                                                ",
"           o                               o                    ",
"      oooooO.              o          oooooO.              o    ",
"    ooOOOOO..         oooooO.       ooOOOOO..         oooooO.   ",
"   oOOOOOOOOO.      ooOOOOO..      oOOOOOOOOO.      ooOOOOO..   ",
"   oOOOOOOooo.     oOOOOOOOOO.     oOOOOOOooo.     oOOOOOOOOO.  ",
"  oOOOOOoo%%%o.    oOOOOOOooo.    oOOOOOoo%%%o.    oOOOOOOooo.  ",
"  oOOOOo%%&&&%.   oOOOOOoo%%%o.   oOOOOo%%&&&%.   oOOOOOoo%%%o. ",
"  oOOOoo&&&&&&.   oOOOOo%%&&&%.   oOOOoo&&&&&&.   oOOOOo%%&&&%. ",
"  .oOOo%&&.&&&.   oOOOoo&&&&&&.   .oOOo%&&.&&&.   oOOOoo&&&&&&. ",
"   .ooo%&&.&&.    .oOOo%&&.&&&.    .ooo%&&.&&.    .oOOo%&&.&&&. ",
"   .%oo%&&&&&.     .ooo%&&.&&.     .%oo%&&&&&.     .ooo%&&.&&.  ",
"    .%%%%&&&.      .%oo%&&&&&.      .%%%%&&&.      .%oo%&&&&&.  ",
"     ..@+%%.        .%%%%&&&.        ..@+%%.        .%%%%&&&.   ",
"     ...@@@.         ..+@%..         ...@@@.         ..+@%..    ",
"     .%&.@@.         ..@@@@..        .%&.@@.         .+@@.%&.   ",
"     .&&.o*.        .%&.@@@..        .&&.o*.        ..@@@.&&.   ",
"     ...+++.        .&&.oo*.         ...+++.        ..oooo..    ",
"      .##$.          ..++++$.         .##$.          .++++..    ",
"      .OOO.         .o##.##OO.        .OOO.         .o##..oo.   ",
"       ...          .oo...oOO.         ...          .oo...oo.   ",
"                     ..   ...                        ..   ..    ",
"                                                                ",
"                                                                ",
"                                                                ",
"                                                                ",
"                                                                ",
"                                                                ",
"                                                                ",
"                                                                ",
"                                                                ",
"                                                                ",
"     oo                              oo                         ",
"  oooOO..oo          oo           oooOO..oo          oo         ",
" oOOo..OOOOoo     oooOO..oo      oOOo..OOOOoo     oooOO..oo     ",
"  .oOOOOOOOOOo   oOOo..OOOOoo     .oOOOOOOOOOo   oOOo..OOOOoo   ",
" oOOOOOOOOOOOo    .oOOOOOOOOOo   oOOOOOOOOOOOo    .oOOOOOOOOOo  ",
"oOOOOOOOOOOOOo.  oOOOOOOOOOOOo  oOOOOOOOOOOOOo.  oOOOOOOOOOOOo  ",
"ooOOOOOOOOOOoo. oOOOOOOOOOOOOo. ooOOOOOOOOOOoo. oOOOOOOOOOOOOo. ",
" .oOOOOOOOOOoo. ooOOOOOOOOOOoo.  .oOOOOOOOOOoo. ooOOOOOOOOOOoo. ",
" .oooOOOOOoooo.  .oOOOOOOOOOoo.  .oooOOOOOoooo.  .oOOOOOOOOOoo. ",
"  .oooooooooo.   .oooOOOOOoooo.   .oooooooooo.   .oooOOOOOoooo. ",
"  .%oooooooo%.    .oooooooooo.    .%oooooooo%.    .oooooooooo.  ",
"   .%&oooo&%.     .%oooooooo%.     .%&oooo&%.     .%oooooooo%.  ",
"  X@@@%&&%@@@.     .%&oooo&%.     X@@@%&&%@@@.     .%&oooo&%.   ",
"  X@+@@@@@@+@.    X@@@%&&%@@@.    X@+@@@@@@+@.    X@@@%&&%@@@.  ",
" .&%.+@@@@+.%&.   .%.@@@@@+@@.   .&%.+@@@@+.%&.   X@@+@@@@@.%.  ",
" .%%.oooooo.%%.    ..+@@@@.%&.   .%%.oooooo.%%.   .&%.@@@@+..   ",
"  ...++++++...      .ooooo.%%.    ...++++++...    .%%.ooooo.    ",
"    .$#..#$.        .++++++..       .$#..#$.       ..++++++.    ",
"    .OO..OO.        .$#..oo.        .OO..OO.        .oo..#$.    ",
"     ..  ..         .OO. ..          ..  ..          .. .OO.    ",
"                     ..                                  ..     ",
"                                                                ",
"                                                                ",
"                                                                ",
"                                                                ",
"                                                                ",
"                                                                ",
"                                                                ",
"                                                                ",
"                                                                ",
"                                                                ",
"                                                                ",
"                                                                ",
"      oo                              oo                        ",
"     oOOoo            oo             oOOoo            oo        ",
"   ooOOo.Ooo         oOOoo         ooOOo.Ooo         oOOoo      ",
"  oOOOOOooOOo      ooOOo.Ooo      oOOOOOooOOo      ooOOo.Ooo    ",
"  oooOOO..oOo     oOOOOOooOOo     oooOOO..oOo     oOOOOOooOOo   ",
" .o%%...ooOOo.    oooOOO..oOo    .o%%...ooOOo.    oooOOO..oOo   ",
" .%&&&%%oOOoo.   .o%%...ooOOo.   .%&&&%%oOOoo.   .o%%...ooOOo.  ",
" .&&&&&&ooOoo.   .%&&&%%oOOoo.   .&&&&&&ooOoo.   .%&&&%%oOOoo.  ",
" .&&&.&&%oooo.   .&&&&&&ooOoo.   .&&&.&&%oooo.   .&&&&&&ooOoo.  ",
"  .&&.&&%ooo.    .&&&.&&%oooo.    .&&.&&%ooo.    .&&&.&&%oooo.  ",
"  .&&&&&%oo%.     .&&.&&%ooo.     .&&&&&%oo%.     .&&.&&%ooo.   ",
"   .&&&%%%%.      .&&&&&%oo%.      .&&&%%%%.      .&&&&&%oo%.   ",
"    .%%+@..        .&&&%%%%.        .%%+@..        .&&&%%%%.    ",
"    .@@@...         .%%+@..         .@@@...         ..%@+..     ",
"    .@@.&%.         .@@@...         .@@.&%.        .&%.@@+.     ",
"    .*o.&&.         .@@.&%.         .*o.&&.        .&&.@@@..    ",
"    .+++...         .*o.&&.         .+++...         ..oooo..    ",
"     .$##.         .$+++...          .$##.          ..++++.     ",
"     .OOO.        .OO##.##o.         .OOO.         .oo..##o.    ",
"      ...         .OOo...oo.          ...          .oo...oo.    ",
"                   ...   ..                         ..   ..     ",
"                                                                ",
"                                                                ",
"                                                                ",
"                                                                ",
"                                                                "
};
