/* XPM */
static char *result[] = {
/* columns rows colors chars-per-pixel */
"20 32 204 2 ",
"   c #593722",
".  c #573C2B",
"X  c #5A3D29",
"o  c #5A3E2C",
"O  c #593F2E",
"+  c #5A402E",
"@  c #5B402E",
"#  c #5B412E",
"$  c #5B402F",
"%  c #5A412F",
"&  c #5C402D",
"*  c #5E412D",
"=  c #5C412E",
"-  c #5C412F",
";  c #5D422E",
":  c #5F432F",
">  c #5B4333",
",  c #5C4230",
"<  c #5D4230",
"1  c #5E4230",
"2  c #5C4433",
"3  c #5D4535",
"4  c #5C4635",
"5  c #5D4838",
"6  c #5F4938",
"7  c #5E4939",
"8  c #5F4A3A",
"9  c #60412D",
"0  c #604937",
"q  c #654A37",
"w  c #604A3A",
"e  c #614B3B",
"r  c #644938",
"t  c #614C3B",
"y  c #654C3A",
"u  c #614D3D",
"i  c #634D3C",
"p  c #614E3F",
"a  c #624E3E",
"s  c #644E3D",
"d  c #69513E",
"f  c #5F554A",
"g  c #5F554B",
"h  c #604F42",
"j  c #615041",
"k  c #625040",
"l  c #635040",
"z  c #635141",
"x  c #605043",
"c  c #615043",
"v  c #625143",
"b  c #645142",
"n  c #655243",
"m  c #645244",
"M  c #645345",
"N  c #655345",
"B  c #645346",
"V  c #685342",
"C  c #6B5441",
"Z  c #6C5543",
"A  c #6B5545",
"S  c #695646",
"D  c #6A5747",
"F  c #6D5644",
"G  c #61584E",
"H  c #69584A",
"J  c #6C5948",
"K  c #6E5949",
"L  c #6D5A4A",
"P  c #6C5B4B",
"I  c #6E5B4A",
"U  c #6B5A4C",
"Y  c #695C4C",
"T  c #6F5D4F",
"R  c #705947",
"E  c #735D4C",
"W  c #715F4F",
"Q  c #635A50",
"!  c #635B50",
"~  c #645B51",
"^  c #655C51",
"/  c #645C53",
"(  c #655C53",
")  c #655D53",
"_  c #655D54",
"`  c #665E55",
"'  c #665F55",
"]  c #6B5F52",
"[  c #676057",
"{  c #6F6050",
"}  c #686056",
"|  c #696157",
" . c #6D6355",
".. c #6B6457",
"X. c #696158",
"o. c #6A6259",
"O. c #69635B",
"+. c #6A635A",
"@. c #6A635B",
"#. c #6B645A",
"$. c #6B645B",
"%. c #6C655B",
"&. c #6B675F",
"*. c #6C655C",
"=. c #6C665C",
"-. c #6D665C",
";. c #6D675C",
":. c #6D675D",
">. c #6E675E",
",. c #6E685D",
"<. c #6F685E",
"1. c #726050",
"2. c #726150",
"3. c #736150",
"4. c #726151",
"5. c #746150",
"6. c #746351",
"7. c #766454",
"8. c #766555",
"9. c #776757",
"0. c #716B5E",
"q. c #706A5F",
"w. c #716B5F",
"e. c #726B5F",
"r. c #786858",
"t. c #7D6D5E",
"y. c #706A60",
"u. c #716A60",
"i. c #716B60",
"p. c #726B60",
"a. c #736C61",
"s. c #736D62",
"d. c #746E63",
"f. c #756E63",
"g. c #746F65",
"h. c #756F65",
"j. c #757065",
"k. c #757066",
"l. c #767066",
"z. c #767166",
"x. c #777166",
"c. c #767167",
"v. c #7A7063",
"b. c #7B7366",
"n. c #7C7366",
"m. c #7F7464",
"M. c #7D7368",
"N. c #7A7469",
"B. c #7A7569",
"V. c #7A746A",
"C. c #7A756A",
"Z. c #7B756A",
"A. c #7A756D",
"S. c #7B776D",
"D. c #7E796D",
"F. c #7D786E",
"G. c #7E786E",
"H. c #7E7870",
"J. c #7E7970",
"K. c #7F7971",
"L. c #7E7A70",
"P. c #7F7A70",
"I. c #7F7A71",
"U. c #807465",
"Y. c #817566",
"T. c #807B70",
"R. c #817C71",
"E. c #817C72",
"W. c #837D72",
"Q. c #827C73",
"!. c #857F72",
"~. c #837E75",
"^. c #837F75",
"/. c #837E76",
"(. c #858075",
"). c #858175",
"_. c #898377",
"`. c #87847A",
"'. c #87857B",
"]. c #888479",
"[. c #888579",
"{. c #8A857A",
"}. c #89867C",
"|. c #89877D",
" X c #8B887E",
".X c #8B897E",
"XX c #8B897F",
"oX c #8C897E",
"OX c #8D8A80",
"+X c #8C8A81",
"@X c #8E8B80",
"#X c #8F8B81",
"$X c #8E8C81",
"%X c #908D82",
"&X c #908D83",
"*X c #918E82",
"=X c #918E84",
"-X c #939185",
";X c #929086",
":X c #939086",
">X c #939186",
",X c #949187",
"<X c #959188",
"1X c None",
/* pixels */
"1X1X1X1X1X1X1X1X1X1X1X1X1X1X1X1X1X1X1X1X",
"1X1X1X1X1X1X1X1X1X1X1X1X1X1X1X1X1X1X1X1X",
"1X1X1X1X1X1X1X1X1X1X1X1X1X1X1X1X1X1X1X1X",
"1X1X1X1X1X1X1X1X1X1X1X1X1X1X1X1X1X1X1X1X",
"1X1X1X1X1X1X1X1XR Y.m.U.7.1X1X1X1X1X1X1X",
"1X1X1X1X1X1X1X1XE >X-X,Xt.1X1X1X1X1X1X1X",
"1X1X1X1X1X1X1X1Xd R.P.L.K 1X1X1X1X1X1X1X",
"1X1X1X1X1X1X1X1Xq N.f.j.V 1X1X1X1X1X1X1X",
"1X1X1X7.r.9.8.6.2.x.a.h.{ C 3.4.1.W 1X1X",
"1X1XF _.;X=X&X@X[.x.p.d.b.!..X.X X].A 1X",
"1X1X9 M.~./.^.E.F.s.q.i.V.P.I.J.H.K.r 1X",
"1X1X  ] #.%.;.,.<.<.<.<.,.-.o.X.[ -.X 1X",
"1X1X1X- $ - < ; s y.-.>.N & # + O , 1X1X",
"1X1X1X1X1X1X1X1X: u.%.>.t 1X1X1X1X1X1X1X",
"1X1X1X1X1X1X1X1X1 <.o.+.e 1X1X1X1X1X1X1X",
"1X1X1X1X1X1X1X1X= #.( } w 1X1X1X1X1X1X1X",
"1X1X1X1X1X1X1X1X@ | ~ ' 8 1X1X1X1X1X1X1X",
"1X1X1X1X1X1X1X1Xo } Q ` 7 1X1X1X1X1X1X1X",
"1X1X1X1X1Xi N p 3 ) G _ 5 . > % 1X1X1X1X",
"1X1X1X1X1XS S.p.6 ~ g / 7 j ..k 1X1X1X1X",
"1X1X1X1X1XD L.Z.0 ^ f ! 7 Y 0.l 1X1X1X1X",
"1X1X1X1X1XJ T.D.P u 4 7 a  .w.z 1X1X1X1X",
"1X1X1X1X1XL R.(.{.n.v.n.W.C.e.b 1X1X1X1X",
"1X1X1X1X1XI ).#X$XoX|.}.'.`.B.n 1X1X1X1X",
"1X1X1X1X1X5.<X:X*X%X@XOXXXXX+XT 1X1X1X1X",
"1X1X1X1X1XZ Q.G.V.x.z.k.g.c.A.U 1X1X1X1X",
"1X1X1X1X1Xy l.y.:.=.*.$.@.O.&.B 1X1X1X1X",
"1X1X1X1X1X* H N N M m v c h x 2 1X1X1X1X",
"1X1X1X1X1X1X1X1X1X1X1X1X1X1X1X1X1X1X1X1X",
"1X1X1X1X1X1X1X1X1X1X1X1X1X1X1X1X1X1X1X1X",
"1X1X1X1X1X1X1X1X1X1X1X1X1X1X1X1X1X1X1X1X",
"1X1X1X1X1X1X1X1X1X1X1X1X1X1X1X1X1X1X1X1X"
};
