/* XPM */
static char *result[] = {
/* columns rows colors chars-per-pixel */
"96 96 34 1 ",
"  c black",
". c #3F2100",
"X c #4C2800",
"o c #663500",
"O c #4C3325",
"+ c #164B04",
"@ c #174C04",
"# c #264A1C",
"$ c #1E6505",
"% c #664432",
"& c #2E2E4C",
"* c #2F2F4C",
"= c #3E3E66",
"- c #3F3F66",
"; c #B15100",
": c #E46800",
"> c #2D9808",
", c #3CCA0A",
"< c #3DCC0A",
"1 c #4BFD0D",
"2 c #4CFF0D",
"3 c #49A362",
"4 c #73C253",
"5 c #FE8118",
"6 c #FE9C48",
"7 c #E59A72",
"8 c #BCE869",
"9 c #5E5E98",
"0 c #7D7DCB",
"q c #7E7ECC",
"w c #FFBD99",
"e c #9C9CFE",
"r c #9D9DFF",
"t c None",
/* pixels */
"tttttttttttttttttttttttttttttttttttttttttttttttttttttttttttttttttttttttttttttttttttttttttttttttt",
"tttttttttttttttttttttttttttttttttttttttttttttttttttttttttttttttttttttttttttttttttttttttttttttttt",
"ttttttttttt##tttttttttttttttttttttttttttttttttttttttttttttt##ttttttttttttttttttttttttttttttttttt",
"tttttttttt#88#ttttttttttttttttttttt##ttttttttttttttttttttt#88#ttttttttttttttttttttt##ttttttttttt",
"tttttttttt#84#tttttttttttttttttttt#88#tttttttttttttttttttt#84#tttttttttttttttttttt#88#tttttttttt",
"tttttttttX3443Xttttttttttttttttttt#84#tttttttttttttttttttX3443Xttttttttttttttttttt#84#tttttttttt",
"ttttttttX;:33;;XtttttttttttttttttX3443XtttttttttttttttttX;:33;;XtttttttttttttttttX3443Xttttttttt",
"ttttttto;5::;:5;otttttttttttttttX;:33;;Xttttttttttttttto;5::;:5;otttttttttttttttX;:33;;Xtttttttt",
"tttttto5;.55;5.;6ottttttttttttto;5::;:5;ottttttttttttto5;.55;5.;6ottttttttttttto;5::;:5;ottttttt",
"tttttto65X.65.X55otttttttttttto5;.55;5.;6otttttttttttto65X.65.X55otttttttttttto5;.55;5.;6otttttt",
"tttttto:.566;66.:otttttttttttto65X.65.X55otttttttttttto:.566;66.:otttttttttttto65X.65.X55otttttt",
"tttttto:%.6..6.%:otttttttttttto:.566;66.:otttttttttttto:%.6..6.%:otttttttttttto:.566;66.:otttttt",
"ttttttX:%w.ww.w%:Xtttttttttttto:%.6..6.%:ottttttttttttX:%w.ww.w%:Xtttttttttttto:%.6..6.%:otttttt",
"tttttttX:7 ww 7:XtttttttttttttX:%w.ww.w%:XtttttttttttttX:7 ww 7:XtttttttttttttX:%w.ww.w%:Xtttttt",
"ttttttttX;7777;XtttttttttttttttX:7 ww 7:XtttttttttttttttX;7777;XtttttttttttttttX:7 ww 7:Xttttttt",
"tttttttt+9OOOO9+ttttttttttttttttX;7777;Xtttttttttttttttt+9OOOO9+ttttttttttttttttX;7777;Xtttttttt",
"ttttttt+>,99999>+ttttttttttttttt+9OOOO9+ttttttttttttttt+>99999,>+ttttttttttttttt+9OOOO9+tttttttt",
"ttttttt$,,$0000=+tttttttttttttt+>099990>+tttttttttttttt+=0000$,,$tttttttttttttt+>099990>+ttttttt",
"ttttttt$1,$0000=+ttttttttttttt$,,000000,,$ttttttttttttt+=0000$,1$ttttttttttttt$,,000000,,$tttttt",
"tttttttt$$qrrrr-tttttttttttttt$1,$0000$,1$tttttttttttttt-rrrrq$$tttttttttttttt$1,$0000$,1$tttttt",
"ttttttttt*qqqrr-ttttttttttttttt$$rrrrrr$$ttttttttttttttt-rrqqq*tttttttttttttttt$$rrrrrr$$ttttttt",
"tttttttttt@--<<@tttttttttttttttt-rrqqrr-tttttttttttttttt*<<--@tttttttttttttttttt-rrqqrr-tttttttt",
"ttttttttttttt@@ttttttttttttttttt*<<--<<*ttttttttttttttttt@@ttttttttttttttttttttt*<<--<<*tttttttt",
"ttttttttttttttttttttttttttttttttt@@tt@@tttttttttttttttttttttttttttttttttttttttttt@@tt@@ttttttttt",
"tttttttttttttttttttttttttttttttttttttttttttttttttttttttttttttttttttttttttttttttttttttttttttttttt",
"tttttttttttttttttttttttttttttttttttttttttttttttttttttttttttttttttttttttttttttttttttttttttttttttt",
"ttttttttttt##tttttttttttttttttttttttttttttttttttttttttttttt##ttttttttttttttttttttttttttttttttttt",
"tttttttttt#88#ttttttttttttttttttttt##ttttttttttttttttttttt#88#ttttttttttttttttttttt##ttttttttttt",
"tttttttttt#84#tttttttttttttttttttt#88#tttttttttttttttttttt#84#tttttttttttttttttttt#88#tttttttttt",
"tttttttttX3443Xttttttttttttttttttt#84#tttttttttttttttttttX3443Xttttttttttttttttttt#84#tttttttttt",
"ttttttttX;:33;;XtttttttttttttttttX3443XtttttttttttttttttX;:33;;XtttttttttttttttttX3443Xttttttttt",
"ttttttto;5::;:5;otttttttttttttttX;:33;;Xttttttttttttttto;5::;:5;otttttttttttttttX;:33;;Xtttttttt",
"tttttto5;655;56;6ottttttttttttto;5::;:5;ottttttttttttto5;655;56;6ottttttttttttto;5::;:5;ottttttt",
"tttttto6555656655otttttttttttto5;655;56;6otttttttttttto6555656655otttttttttttto5;655;56;6otttttt",
"tttttto:;566;66;:otttttttttttto6555656655otttttttttttto:;566;66;:otttttttttttto6555656655otttttt",
"tttttto:;5ww;66;:otttttttttttto:;566;66;:otttttttttttto:;5ww;66;:otttttttttttto:;566;66;:otttttt",
"tttttttX%7 w:::;:Xtttttttttttto:;5ww;66;:otttttttttttttX%7 w:::;:Xtttttttttttto:;5ww;66;:otttttt",
"ttttttttO7 7;:::XttttttttttttttX%7 w:::;:XttttttttttttttO7 7;:::XttttttttttttttX%7 w:::;:Xtttttt",
"tttttttttO7;;;;XttttttttttttttttO7 7;:::XttttttttttttttttO7;;;;XttttttttttttttttO7 7;:::Xttttttt",
"ttttttttttOOOOtttttttttttttttttttO7;;;;XttttttttttttttttttOOOOtttttttttttttttttttO7;;;;Xtttttttt",
"ttttttttt&e009+tttttttttttttttttttOOOOttttttttttttttttttt+9009&tttttttttttttttttttOOOOtttttttttt",
"tttttttt+&00e,,$ttttttttttttttttt&999=&ttttttttttttttttt$1,009&+ttttttttttttttttt&999=&ttttttttt",
"tttttttt+&00$1,$ttttttttttttttttt&$1,$&ttttttttttttttttt$1,+09&+ttttttttttttttttt&$1,$&ttttttttt",
"ttttttttt-rrq$$tttttttttttttttttt&$1,$&tttttttttttttttttt$+qqr-tttttttttttttttttt&$1,$&ttttttttt",
"tttttttt@2rq-q<@ttttttttttttttttt-r$+q-ttttttttttttttttt@<q-qr2@ttttttttttttttttt-r$+q-ttttttttt",
"tttttttt@2<--<<@ttttttttttttttttt-rrqq-ttttttttttttttttt@<<--<<@ttttttttttttttttt-rrqq-ttttttttt",
"ttttttttt@@tt@@ttttttttttttttttttt-<<*ttttttttttttttttttt@@tt@@ttttttttttttttttttt-<<*tttttttttt",
"ttttttttttttttttttttttttttttttttttt@@tttttttttttttttttttttttttttttttttttttttttttttt@@ttttttttttt",
"tttttttttttttttttttttttttttttttttttttttttttttttttttttttttttttttttttttttttttttttttttttttttttttttt",
"tttttttttttttttttttttttttttttttttttttttttttttttttttttttttttttttttttttttttttttttttttttttttttttttt",
"ttttttttttt##tttttttttttttttttttttttttttttttttttttttttttttt##ttttttttttttttttttttttttttttttttttt",
"tttttttttt#88#ttttttttttttttttttttt##ttttttttttttttttttttt#88#ttttttttttttttttttttt##ttttttttttt",
"tttttttttt#48#tttttttttttttttttttt#88#tttttttttttttttttttt#48#tttttttttttttttttttt#88#tttttttttt",
"tttttttttX3443Xttttttttttttttttttt#48#tttttttttttttttttttX3443Xttttttttttttttttttt#48#tttttttttt",
"ttttttttX;;33:;XtttttttttttttttttX3443XtttttttttttttttttX;;33:;XtttttttttttttttttX3443Xttttttttt",
"ttttttto;5:;::5;otttttttttttttttX;;33:;Xttttttttttttttto;5:;::5;otttttttttttttttX;;33:;Xtttttttt",
"tttttto6;65;556;5ottttttttttttto;5:;::5;ottttttttttttto6;65;556;5ottttttttttttto;5:;::5;ottttttt",
"tttttto5566565556otttttttttttto6;65;556;5otttttttttttto5566565556otttttttttttto6;65;556;5otttttt",
"tttttto:;66;665;:otttttttttttto5566565556otttttttttttto:;66;665;:otttttttttttto5566565556otttttt",
"tttttto:;66;ww5;:otttttttttttto:;66;665;:otttttttttttto:;66;ww5;:otttttttttttto:;66;665;:otttttt",
"ttttttX:;:::w 7%Xttttttttttttto:;66;ww5;:ottttttttttttX:;:::w 7%Xttttttttttttto:;66;ww5;:otttttt",
"tttttttX:::;7 7OttttttttttttttX:;:::w 7%XttttttttttttttX:::;7 7OttttttttttttttX:;:::w 7%Xttttttt",
"ttttttttX;;;;7OttttttttttttttttX:::;7 7OttttttttttttttttX;;;;7OttttttttttttttttX:::;7 7Otttttttt",
"ttttttttttOOOOttttttttttttttttttX;;;;7OtttttttttttttttttttOOOOttttttttttttttttttX;;;;7Ottttttttt",
"ttttttttt&9009+tttttttttttttttttttOOOOttttttttttttttttttt+900e&tttttttttttttttttttOOOOtttttttttt",
"tttttttt+&900,1$ttttttttttttttttt&=999&ttttttttttttttttt$,,e00&+ttttttttttttttttt&=999&ttttttttt",
"tttttttt+&90+,1$ttttttttttttttttt&$,1$&ttttttttttttttttt$,1$00&+ttttttttttttttttt&$,1$&ttttttttt",
"ttttttttt-rqq+$tttttttttttttttttt&$,1$&tttttttttttttttttt$$qrr-tttttttttttttttttt&$,1$&ttttttttt",
"tttttttt@2rq-q<@ttttttttttttttttt-q+$r-ttttttttttttttttt@<q-qr2@ttttttttttttttttt-q+$r-ttttttttt",
"tttttttt@<<--<<@ttttttttttttttttt-qqrr-ttttttttttttttttt@<<--<2@ttttttttttttttttt-qqrr-ttttttttt",
"ttttttttt@@tt@@ttttttttttttttttttt*<<-ttttttttttttttttttt@@tt@@ttttttttttttttttttt*<<-tttttttttt",
"ttttttttttttttttttttttttttttttttttt@@tttttttttttttttttttttttttttttttttttttttttttttt@@ttttttttttt",
"tttttttttttttttttttttttttttttttttttttttttttttttttttttttttttttttttttttttttttttttttttttttttttttttt",
"tttttttttttttttttttttttttttttttttttttttttttttttttttttttttttttttttttttttttttttttttttttttttttttttt",
"ttttttttttt##tttttttttttttttttttttttttttttttttttttttttttttt##ttttttttttttttttttttttttttttttttttt",
"tttttttttt#88#ttttttttttttttttttttt##ttttttttttttttttttttt#88#ttttttttttttttttttttt##ttttttttttt",
"tttttttttt#84#tttttttttttttttttttt#88#tttttttttttttttttttt#84#tttttttttttttttttttt#88#tttttttttt",
"tttttttttX3443Xttttttttttttttttttt#84#tttttttttttttttttttX3443Xttttttttttttttttttt#84#tttttttttt",
"ttttttttX;:33;;XtttttttttttttttttX3443XtttttttttttttttttX;:33;;XtttttttttttttttttX3443Xttttttttt",
"ttttttto;5::;:5;otttttttttttttttX;:33;;Xttttttttttttttto;5::;:5;otttttttttttttttX;:33;;Xtttttttt",
"tttttto5;655;56;6ottttttttttttto;5::;:5;ottttttttttttto5;655;56;6ottttttttttttto;5::;:5;ottttttt",
"tttttto6555656655otttttttttttto5;655;56;6otttttttttttto6555656655otttttttttttto5;655;56;6otttttt",
"tttttto:;566;66;:otttttttttttto6555656655otttttttttttto:;566;66;:otttttttttttto6555656655otttttt",
"tttttto:;566;66;:otttttttttttto:;566;66;:otttttttttttto:;566;66;:otttttttttttto:;566;66;:otttttt",
"ttttttX:;::::::;:Xtttttttttttto:;566;66;:ottttttttttttX:;::::::;:Xtttttttttttto:;566;66;:otttttt",
"tttttttX:::;;:::XtttttttttttttX:;::::::;:XtttttttttttttX:::;;:::XtttttttttttttX:;::::::;:Xtttttt",
"ttttttttX;;;;;;XtttttttttttttttX:::;;:::XtttttttttttttttX;;;;;;XtttttttttttttttX:::;;:::Xttttttt",
"tttttttt+9OOOO9+ttttttttttttttttX;;;;;;Xtttttttttttttttt+9OOOO9+ttttttttttttttttX;;;;;;Xtttttttt",
"ttttttt+>,99999>+ttttttttttttttt+9OOOO9+ttttttttttttttt+>99999,>+ttttttttttttttt+9OOOO9+tttttttt",
"ttttttt$,,$0000=+tttttttttttttt+>099990>+tttttttttttttt+=0000$,,$tttttttttttttt+>099990>+ttttttt",
"ttttttt$1,$0000=+ttttttttttttt$,,000000,,$ttttttttttttt+=0000$,1$ttttttttttttt$,,000000,,$tttttt",
"tttttttt$$qrrrr-tttttttttttttt$1,$0000$,1$tttttttttttttt-rrrrq$$tttttttttttttt$1,$0000$,1$tttttt",
"ttttttttt*qqqrr-ttttttttttttttt$$rrrrrr$$ttttttttttttttt-rrqqq*tttttttttttttttt$$rrrrrr$$ttttttt",
"tttttttttt@--<<*tttttttttttttttt-rrqqrr-tttttttttttttttt*<<--@tttttttttttttttttt-rrqqrr-tttttttt",
"ttttttttttttt@@ttttttttttttttttt*<<--<<*ttttttttttttttttt@@ttttttttttttttttttttt*<<--<<*tttttttt",
"ttttttttttttttttttttttttttttttttt@@tt@@tttttttttttttttttttttttttttttttttttttttttt@@tt@@ttttttttt"
};
